<?xml version="1.0" standalone="no"?>
<!DOCTYPE svg PUBLIC "-//W3C//DTD SVG 20010904//EN"
 "http://www.w3.org/TR/2001/REC-SVG-20010904/DTD/svg10.dtd">
<svg version="1.0" xmlns="http://www.w3.org/2000/svg"
 width="581.000000pt" height="470.000000pt" viewBox="0 0 581.000000 470.000000"
 preserveAspectRatio="xMidYMid meet">

<g transform="translate(0.000000,470.000000) scale(0.100000,-0.100000)"
fill="#000000" stroke="none">
<path d="M1223 3639 c-54 -10 -85 -33 -115 -84 l-23 -40 0 -1217 0 -1216 31
-39 c17 -21 45 -46 63 -56 30 -18 95 -19 1769 -18 955 1 1740 5 1745 10 4 4 6
579 5 1277 l-3 1269 -23 37 c-13 20 -40 47 -60 60 l-37 23 -1655 1 c-910 1
-1674 -2 -1697 -7z m3175 -101 c17 -15 15 -58 -5 -80 -18 -21 -33 -22 -84 -8
-45 13 -59 49 -34 87 15 22 21 23 63 17 26 -3 53 -11 60 -16z m-198 -47 c0
-11 -39 -25 -47 -18 -3 3 -2 10 2 16 8 13 45 15 45 2z"/>
</g>
</svg>
